<svg width="31" height="30" viewBox="0 0 31 30" fill="none" xmlns="http://www.w3.org/2000/svg">
<path d="M15.5 1.875C8.25195 1.875 2.375 7.9043 2.375 15.334C2.375 21.2812 6.13672 26.3203 11.3516 28.1016C11.4247 28.1174 11.4994 28.1253 11.5742 28.125C12.0605 28.125 12.248 27.7676 12.248 27.457C12.248 27.1348 12.2363 26.291 12.2305 25.166C11.7963 25.2678 11.3522 25.3209 10.9062 25.3242C8.38086 25.3242 7.80664 23.3613 7.80664 23.3613C7.20898 21.8086 6.34766 21.3926 6.34766 21.3926C5.20508 20.5898 6.3418 20.5664 6.42969 20.5664H6.43555C7.75391 20.6836 8.44531 21.9609 8.44531 21.9609C9.10156 23.1094 9.98047 23.4316 10.7656 23.4316C11.2848 23.4213 11.7959 23.3015 12.2656 23.0801C12.3828 22.2129 12.7227 21.6211 13.0977 21.2812C10.1855 20.9414 7.12109 19.7871 7.12109 14.6309C7.12109 13.1602 7.63086 11.959 8.46875 11.0215C8.33398 10.6816 7.88281 9.31055 8.59766 7.45898C8.69354 7.43601 8.79209 7.42616 8.89062 7.42969C9.36523 7.42969 10.4375 7.61133 12.207 8.8418C14.3571 8.24019 16.6311 8.24019 18.7812 8.8418C20.5508 7.61133 21.623 7.42969 22.0977 7.42969C22.1962 7.42616 22.2947 7.43601 22.3906 7.45898C23.1055 9.31055 22.6543 10.6816 22.5195 11.0215C23.3574 11.9648 23.8672 13.166 23.8672 14.6309C23.8672 19.7988 20.7969 20.9355 17.873 21.2695C18.3418 21.6855 18.7637 22.5059 18.7637 23.7598C18.7637 25.5586 18.7461 27.0117 18.7461 27.4512C18.7461 27.7676 18.9277 28.125 19.4141 28.125C19.4928 28.1253 19.5713 28.1175 19.6484 28.1016C24.8691 26.3203 28.625 21.2754 28.625 15.334C28.625 7.9043 22.748 1.875 15.5 1.875Z" fill="#ECE6DA"/>
</svg>
