<svg width="416" height="16" viewBox="0 0 416 16" fill="none" xmlns="http://www.w3.org/2000/svg">
<rect x="55" y="6.5" width="132" height="3" fill="url(#paint0_linear_244_872)"/>
<path d="M203.776 12.62C203.176 12.62 202.616 12.508 202.096 12.284C201.576 12.06 201.12 11.752 200.728 11.36C200.336 10.96 200.028 10.5 199.804 9.98C199.588 9.452 199.48 8.888 199.48 8.288C199.48 7.688 199.588 7.128 199.804 6.608C200.028 6.088 200.332 5.632 200.716 5.24C201.108 4.84 201.56 4.532 202.072 4.316C202.592 4.092 203.152 3.98 203.752 3.98C204.352 3.98 204.908 4.092 205.42 4.316C205.94 4.532 206.396 4.84 206.788 5.24C207.18 5.632 207.484 6.092 207.7 6.62C207.924 7.14 208.036 7.7 208.036 8.3C208.036 8.9 207.924 9.464 207.7 9.992C207.484 10.512 207.18 10.968 206.788 11.36C206.404 11.752 205.952 12.06 205.432 12.284C204.92 12.508 204.368 12.62 203.776 12.62ZM203.752 11.3C204.32 11.3 204.816 11.172 205.24 10.916C205.672 10.66 206.008 10.308 206.248 9.86C206.496 9.404 206.62 8.88 206.62 8.288C206.62 7.848 206.548 7.448 206.404 7.088C206.268 6.72 206.072 6.404 205.816 6.14C205.56 5.868 205.256 5.66 204.904 5.516C204.56 5.372 204.176 5.3 203.752 5.3C203.192 5.3 202.696 5.428 202.264 5.684C201.84 5.932 201.504 6.28 201.256 6.728C201.016 7.176 200.896 7.696 200.896 8.288C200.896 8.728 200.964 9.136 201.1 9.512C201.244 9.88 201.44 10.196 201.688 10.46C201.944 10.724 202.248 10.932 202.6 11.084C202.952 11.228 203.336 11.3 203.752 11.3ZM210.387 8.936V7.796H212.511C212.935 7.796 213.263 7.688 213.495 7.472C213.735 7.248 213.855 6.94 213.855 6.548C213.855 6.196 213.739 5.9 213.507 5.66C213.275 5.42 212.947 5.3 212.523 5.3H210.387V4.1H212.583C213.111 4.1 213.575 4.208 213.975 4.424C214.375 4.632 214.683 4.92 214.899 5.288C215.123 5.648 215.235 6.06 215.235 6.524C215.235 7.012 215.123 7.436 214.899 7.796C214.683 8.156 214.375 8.436 213.975 8.636C213.575 8.836 213.111 8.936 212.583 8.936H210.387ZM209.439 12.5V4.1H210.819V12.5H209.439ZM214.047 12.5L211.107 8.852L212.391 8.384L215.787 12.5H214.047Z" fill="#555252"/>
<rect x="361" y="9.5" width="132" height="3" transform="rotate(-180 361 9.5)" fill="url(#paint1_linear_244_872)"/>
<defs>
<linearGradient id="paint0_linear_244_872" x1="181.5" y1="7.49993" x2="85" y2="9.49988" gradientUnits="userSpaceOnUse">
<stop stop-color="#F0AF3E"/>
<stop offset="1" stop-color="#C4C4C4" stop-opacity="0"/>
</linearGradient>
<linearGradient id="paint1_linear_244_872" x1="487.5" y1="10.4999" x2="391" y2="12.4999" gradientUnits="userSpaceOnUse">
<stop stop-color="#F0AF3E"/>
<stop offset="1" stop-color="#C4C4C4" stop-opacity="0"/>
</linearGradient>
</defs>
</svg>
